<?xml version="1.0" encoding="UTF-8" standalone="no"?>
<!DOCTYPE svg PUBLIC "-//W3C//DTD SVG 1.1//EN" "http://www.w3.org/Graphics/SVG/1.1/DTD/svg11.dtd">
<svg width="100%" height="100%" viewBox="0 0 1024 1024" version="1.1" xmlns="http://www.w3.org/2000/svg" xmlns:xlink="http://www.w3.org/1999/xlink" xml:space="preserve" xmlns:serif="http://www.serif.com/" style="fill-rule:evenodd;clip-rule:evenodd;stroke-linejoin:round;stroke-miterlimit:2;">
    <g id="path1" transform="matrix(1.27517,0,0,1.27517,-24.304,18.4262)">
        <g id="g1">
            <path id="path11" serif:id="path1" d="M462.667,753.324C462.667,752.738 470.617,743.787 480.333,733.433C518.797,692.443 526.466,680.614 534.854,649.333C540.453,628.454 538.522,590.662 530.821,570.407C530.13,568.589 527.963,559.958 526.005,551.228C522.03,533.507 521.253,513.561 524.086,502C527.886,486.497 536.707,471.253 548.646,459.559C555.64,452.708 569.76,443.982 571.322,445.544C571.772,445.994 570.158,450.146 567.736,454.77C563.578,462.711 563.338,463.926 563.415,476.59C563.489,488.794 563.988,491.379 568.96,505.333C571.964,513.767 577.518,528.167 581.3,537.333C588.447,554.654 592,568.117 592,577.874C592,588.391 586.885,604.214 577.414,623C572.33,633.083 568.802,641.333 569.573,641.333C572.083,641.333 583.658,632.081 590.462,624.637C608.332,605.084 619.077,582.426 622.062,558L623.04,550L626.249,556.943C635.183,576.273 639.162,606.622 635.507,627.55C631.543,650.249 624.372,665.291 610,681.051C591.419,701.427 568.689,713.929 522,729.451C503.934,735.458 486.905,742.12 477.667,746.796C469.417,750.972 462.667,753.909 462.667,753.324ZM357.393,749.182C348.942,744.03 329.43,736.071 304.003,727.403C274.215,717.249 262.623,712.084 249.02,702.905C221.352,684.235 206.517,666.159 197.925,640.647C194.925,631.738 194.231,626.932 193.675,611.203C192.899,589.287 194.778,577.466 202.238,557.333C208.919,539.303 210.061,538.651 211.141,552.251C212.849,573.759 219.309,591.885 231.205,608.556C237.121,616.847 255.327,633.117 256.914,631.531C257.373,631.071 255.004,624.839 251.649,617.681C233.34,578.623 234.316,567.136 259.472,525.642C283.113,486.646 285.016,477.537 274.668,452.907C272.495,447.736 271.007,443.215 271.361,442.861C272.861,441.361 280.036,446.653 290.044,456.642C306.117,472.684 313.333,489.417 313.333,510.64C313.333,523.518 309.961,535.715 300.053,558.667C288.63,585.129 286.511,592.813 285.692,610.745C283.908,649.81 299.252,681.198 341.384,724.667C358.292,742.11 364,748.718 364,750.846C364,752.635 362.394,752.23 357.393,749.182ZM438.69,744.333C438.738,733.873 442.577,721.061 449.32,708.852C461.94,686.004 470.511,667.347 473.257,656.749C476.905,642.671 476.914,625.323 473.279,611.446C470.404,600.47 460.882,580 458.652,580C457.927,580 457.333,582.574 457.333,585.72C457.333,601.992 449.267,619.096 429.894,643.9C409.811,669.613 404.723,681.868 404.942,704C405.022,712.105 406.057,718.707 408.573,727.177C410.508,733.691 411.768,739.343 411.373,739.738C409.21,741.902 389.742,717.948 384.306,706.432C370.918,678.074 373.904,649.677 393.62,617.852C412.441,587.473 416.221,577.545 416.332,558.208C416.409,544.872 410.991,511.67 408.854,512.382C408.156,512.615 406.467,518.341 405.1,525.108C400.168,549.519 394.176,560.645 371.944,586.667C353.3,608.489 345.766,625.625 344.392,649.333C343.339,667.497 346.119,679.55 355.41,697.104C359.458,704.751 362.465,711.313 362.093,711.685C360.238,713.539 337.615,694.068 329.692,683.798C323.129,675.292 314.431,658.254 311.416,648C308.175,636.975 306.638,618.598 307.98,606.896C310.523,584.715 319.5,565.676 337.949,543.333C359.339,517.429 363.028,512.541 366.754,505.16C376.706,485.446 378.183,458.392 370.546,435.74C366.321,423.21 355.811,402.297 346.553,388C319.777,346.649 294.144,324.996 251.333,307.564C243.267,304.279 212.367,293.656 182.667,283.956C152.967,274.257 119.967,263.337 109.333,259.69C82.457,250.471 83.388,250.606 84.485,256.09C86.716,267.247 106.921,301.895 122.739,321.69C134.065,335.863 153.253,351.711 167.536,358.69C187.072,368.233 202.698,372.678 244.667,380.627C308.765,392.767 328.162,399.968 345.149,417.93C351.977,425.149 360.323,440.351 362.026,448.667C362.835,452.621 362.779,452.597 357.089,446.6C331.828,419.973 310.079,411.883 228.017,398.59C213.727,396.275 196.698,392.638 190.175,390.506C156.675,379.559 127.688,360.336 105.807,334.557C81.13,305.486 58.713,263.002 46.685,222.512C40.559,201.892 41.041,200.759 52.39,209.107C68.451,220.922 91.211,232.133 103.333,234.2C107.333,234.882 107.333,234.882 103.155,231.108C100.857,229.032 95.075,224.203 90.306,220.378C75.491,208.491 59.297,187.883 49.672,168.667C39.891,149.141 30.757,119.085 25.293,88.456C22.267,71.487 19.979,22.326 22.153,20.987C22.802,20.587 29.566,25.33 37.183,31.526C78.152,64.852 117.866,87.662 259.977,159.493C289.028,174.176 295.054,177.747 301.536,184.118C308.424,190.889 309.439,192.655 312.651,203.452C326.937,251.475 335.132,265.718 359.96,285.667C372.441,295.695 376.718,297.348 372.037,290.333C370.446,287.95 366.937,281.5 364.239,276C359.519,266.378 359.335,265.471 359.378,252C359.414,240.505 360.314,234.303 364.407,217.333C371.381,188.425 378.15,165.539 384.093,150.769C386.886,143.829 388.873,137.666 388.507,137.075C388.142,136.484 384.128,135.998 379.588,135.995C373.741,135.991 370.082,135.227 367.045,133.375C362.617,130.676 352.311,116.578 353.728,115.161C354.168,114.721 357.409,115.771 360.93,117.495C369.722,121.798 380.641,121.593 391,116.93C395.217,115.033 398.667,112.915 398.667,112.225C398.667,111.534 392.517,110.717 385,110.41C365.612,109.616 356.222,104.549 349.648,91.333C346.781,85.57 343.491,72.065 344.667,70.889C345.064,70.491 347.927,72.616 351.028,75.61C362.219,86.415 375.245,90.125 397.571,88.867C405.141,88.441 417.933,87.707 426,87.236C442.695,86.262 461.945,88.884 470.631,93.315C473.457,94.757 477.874,98.501 480.445,101.635C484.331,106.371 486.602,107.755 493.893,109.832C498.718,111.206 505.253,113.971 508.416,115.977C516.13,120.87 522.667,130.841 522.667,137.717C522.667,143.497 523.05,143.43 512.667,139.479C494.593,132.603 466.642,144.766 457.85,163.333C455.297,168.725 454.69,172.191 454.68,181.453C454.657,201.295 461.132,220.137 476.507,244.97C496.57,277.375 504.392,307.219 501.24,339.333C498.952,362.654 491.246,389.576 474.878,431.44C461.752,465.014 458.58,476.45 457.714,493.333C456.449,518.01 460.119,527.839 481.117,556C497.24,577.625 505.096,590.618 510.138,604C513.609,613.213 513.908,615.469 513.935,632.667C513.963,650.324 513.731,652.008 509.628,663.806C504.194,679.434 498.05,688.781 485.4,700.667C458.402,726.033 451.327,733.324 446.264,741C443.241,745.583 440.295,749.333 439.717,749.333C439.139,749.333 438.677,747.083 438.69,744.333ZM320,329.949C320,328.821 316.68,317.271 312.623,304.282C304.025,276.759 299.383,255.003 297.363,232.768C294.483,201.052 291.543,198.247 226,164.657C173.587,137.797 137.441,118.727 117.314,107.317C99.984,97.492 89.807,91.283 59.856,72.262C55.01,69.185 50.36,66.667 49.523,66.667C47.378,66.667 47.561,69.126 51.429,92.205C58.256,132.946 65.931,158.684 76.544,176.429C83.436,187.954 100.388,205.345 113.333,214.172C131.986,226.889 181.157,253.072 229.333,275.939C242.167,282.031 256.867,289.083 262,291.611C275.113,298.07 299.065,314.399 309.333,323.881C318.539,332.382 320,333.213 320,329.949ZM261.333,264.071C243.973,257.006 154.797,208.558 153.65,205.568C153.272,204.583 154.187,202.554 155.683,201.058C158.402,198.338 158.402,198.338 186.201,213.658C201.491,222.083 226.39,235.374 241.534,243.192C256.678,251.01 269.843,258.341 270.79,259.482C272.004,260.945 272.114,262.188 271.161,263.699C269.228,266.764 268.059,266.808 261.333,264.071ZM216.544,204.546C190.945,191.646 169.11,180.234 168.023,179.187C165.522,176.779 167.633,172.861 171.762,172.246C175.627,171.67 267.542,218.011 269.876,221.712C271.468,224.235 268.776,228 265.381,228C264.12,228 242.143,217.446 216.544,204.546ZM114.667,182.625C104.767,176.794 96.111,171.183 95.431,170.156C94.553,168.829 97.206,162.749 104.599,149.144C110.32,138.615 115.702,129.245 116.558,128.323C117.789,126.998 122.291,129.161 138.058,138.657C149.026,145.263 158.207,151.289 158.461,152.049C159.264,154.457 136.828,193.338 134.669,193.28C133.568,193.251 124.567,188.456 114.667,182.625ZM138.893,168.145C142.317,162.011 144.84,156.319 144.5,155.496C143.715,153.596 124.694,142.667 122.173,142.667C119.941,142.667 107.632,163.786 108.518,166.094C109.399,168.389 128.298,179.884 130.667,179.566C131.767,179.418 135.468,174.279 138.893,168.145ZM463.416,119C463.296,111.831 462.063,110.667 454.588,110.667C446.343,110.667 446.058,112.602 453.337,119.178C460.496,125.645 463.526,125.592 463.416,119ZM477.333,452.093C477.333,448.794 486.755,432.512 493.007,425.007C505.777,409.678 526.991,396.316 546.426,391.361C551.06,390.179 570.26,386.249 589.092,382.626C646.283,371.625 661.725,366.674 683.792,352.263C701.707,340.563 717.969,323.967 732.158,302.902C742.398,287.701 758.61,257.984 758.654,254.333C758.679,252.303 753.135,253.462 738.42,258.563C730.122,261.439 702.033,270.817 676,279.402C623.921,296.577 588.382,309.435 572.729,316.765C549.864,327.473 528.331,344.877 513.466,364.667C508.699,371.012 506.682,372.933 507.166,370.667C510.054,357.132 510.91,351.039 511.57,339.333C512.474,323.287 510.447,305.202 505.79,287.774L502.345,274.882L508.61,267.191C519.18,254.215 524.114,242.001 529.966,214.317C531.79,205.691 534.144,196.991 535.198,194.984C540.581,184.727 555.538,175.13 604.667,150.413C688.347,108.312 778.402,53.576 813.08,23.738C815.507,21.65 818.144,20.344 818.94,20.836C820.957,22.082 819.389,64.664 816.664,82.667C806.982,146.631 782.732,197.589 749.009,224.836C743.954,228.92 740.144,232.589 740.544,232.988C741.497,233.941 756.018,228.65 765.489,223.898C769.609,221.831 778.763,216.273 785.832,211.547C792.902,206.82 798.977,203.424 799.334,204.001C800.274,205.523 792.826,229.863 786.354,246.414C779.612,263.659 767.146,288.391 756.993,304.667C735.715,338.774 706.289,365.986 672.667,382.648C651.889,392.945 643.403,395.008 587.333,403.399C533.106,411.515 509.586,420.886 487.893,443.021C482.085,448.947 477.333,453.029 477.333,452.093ZM548.76,308.543C565.096,298.69 583.799,289.157 624.188,270.096C655.398,255.367 703.226,230.497 723.909,218.241C739.892,208.772 751.003,199.076 759.465,187.219C774.27,166.471 784.983,133.111 791.235,88.284C794.646,63.829 794.531,63.591 783.033,71.335C756.151,89.438 717.707,111.482 649.333,148C568.538,191.152 555.309,199.144 551.546,207.073C550.19,209.931 548.89,218.446 548.026,230.135C547.273,240.327 546.316,251.367 545.9,254.667C544.44,266.253 538.429,294.992 535.231,305.676C533.454,311.612 532,316.664 532,316.902C532,318.267 535.681,316.431 548.76,308.543ZM597.042,230.112C589.375,214.742 587.195,209.23 588.395,208.26C589.278,207.546 599.195,202.312 610.433,196.628C627.736,187.878 631.136,186.578 632.626,188.147C633.593,189.166 638.592,198.823 643.734,209.607C650.869,224.569 652.696,229.535 651.45,230.57C648.903,232.684 610.921,250.667 609.003,250.667C608.063,250.667 602.68,241.417 597.042,230.112ZM626.755,231.955C632.638,228.998 637.764,225.763 638.146,224.766C638.888,222.834 629.025,202.124 626.67,200.669C625.219,199.772 606.165,209.393 602.707,212.769C600.987,214.448 601.435,216.07 606.364,226.008C609.75,232.835 612.791,237.333 614.02,237.333C615.142,237.333 620.872,234.913 626.755,231.955ZM667.94,215.261C665.413,212.216 668.469,209.864 688.667,199.317C698.2,194.338 712.128,187.066 719.617,183.155C727.246,179.172 734.135,176.391 735.284,176.832C738.569,178.093 737.66,182.154 733.267,185.852C729.173,189.296 673.819,217.333 671.112,217.333C670.313,217.333 668.886,216.401 667.94,215.261ZM652.482,184.667C652.06,183.567 652.049,181.797 652.457,180.734C652.865,179.67 665.679,172.494 680.933,164.787C696.186,157.079 717.532,145.716 728.367,139.534C750.841,126.713 755.143,124.719 757.976,125.806C761.199,127.043 760.326,131.591 756.333,134.37C740.444,145.427 661.3,186.667 655.97,186.667C654.474,186.667 652.904,185.767 652.482,184.667L652.482,184.667ZM291.333,364.031C289.867,363.407 273.436,357.119 254.821,350.057C214.083,334.602 213.333,334.24 213.333,330.044C213.333,328.273 213.949,326.443 214.702,325.978C215.916,325.228 242.759,335.012 283.893,351.2C298.886,357.1 302.448,360.167 298.079,363.411C295.158,365.58 295.01,365.594 291.333,364.031ZM560.889,357.778C558.568,355.457 560.351,351.876 565,349.519C571.117,346.418 639.17,319.29 674.543,305.852C694.267,298.359 700.845,296.375 702.21,297.507C704.926,299.761 704.355,303.709 701,305.877C699.35,306.943 682.1,313.918 662.667,321.377C643.233,328.837 613.917,340.278 597.52,346.803C569.431,357.98 563.014,359.903 560.889,357.778ZM168.353,341.535C158.647,338.124 150.463,334.707 150.166,333.941C149.384,331.919 162.105,298.187 163.871,297.598C165.552,297.038 199.732,308.784 202.072,310.726C203.166,311.635 201.971,316.127 197.744,326.991C189.521,348.125 189.575,348.014 187.695,347.868C186.763,347.796 178.059,344.946 168.353,341.535ZM188.413,327.458C191.212,320.74 191.789,318.019 190.696,316.702C189.891,315.732 184.983,313.363 179.79,311.438C172.679,308.802 169.906,308.305 168.557,309.424C166.318,311.283 161.081,325.062 161.608,327.708C161.995,329.647 180.752,337.505 183.333,336.809C184.067,336.612 186.353,332.404 188.413,327.458Z" style="fill:url(#_Radial1);fill-rule:nonzero;"/>
        </g>
    </g>
    <defs>
        <radialGradient id="_Radial1" cx="0" cy="0" r="1" gradientUnits="userSpaceOnUse" gradientTransform="matrix(307.387,-7.24527,7.24527,307.387,427.738,406.319)"><stop offset="0" style="stop-color:rgb(239,136,3);stop-opacity:1"/><stop offset="0.43" style="stop-color:rgb(244,157,18);stop-opacity:1"/><stop offset="1" style="stop-color:rgb(255,203,51);stop-opacity:1"/></radialGradient>
    </defs>
</svg>
